<svg width="154" height="38" viewBox="0 0 154 38" fill="none" xmlns="http://www.w3.org/2000/svg">
<rect x="1" y="1" width="152" height="36" rx="9" fill="#0F0F10" stroke="#0F0F10" stroke-width="2"/>
<path d="M58.984 21.4C59.2293 21.8267 59.4907 22.2053 59.768 22.536C60.056 22.856 60.3707 23.1067 60.712 23.288C61.0533 23.4587 61.4373 23.544 61.864 23.544C62.376 23.544 62.792 23.4053 63.112 23.128C63.432 22.8507 63.592 22.4933 63.592 22.056C63.592 21.64 63.4907 21.3093 63.288 21.064C63.0853 20.808 62.8027 20.5947 62.44 20.424C62.088 20.2427 61.6773 20.0667 61.208 19.896C60.9307 19.8 60.6213 19.672 60.28 19.512C59.9387 19.3413 59.6133 19.1333 59.304 18.888C58.9947 18.632 58.7387 18.3227 58.536 17.96C58.3333 17.5867 58.232 17.1387 58.232 16.616C58.232 16.0187 58.3867 15.496 58.696 15.048C59.0053 14.5893 59.4213 14.2373 59.944 13.992C60.4773 13.736 61.08 13.608 61.752 13.608C62.4133 13.608 62.9893 13.7253 63.48 13.96C63.9707 14.1947 64.3813 14.4933 64.712 14.856C65.0533 15.2187 65.32 15.5973 65.512 15.992L63.976 16.856C63.8373 16.5787 63.6613 16.3227 63.448 16.088C63.2347 15.8427 62.984 15.6507 62.696 15.512C62.4187 15.3627 62.0933 15.288 61.72 15.288C61.1973 15.288 60.8133 15.4107 60.568 15.656C60.3227 15.8907 60.2 16.168 60.2 16.488C60.2 16.776 60.2853 17.0373 60.456 17.272C60.6373 17.496 60.9147 17.7093 61.288 17.912C61.6613 18.1147 62.1467 18.3227 62.744 18.536C63.0747 18.6533 63.4053 18.8027 63.736 18.984C64.0773 19.1653 64.3867 19.3947 64.664 19.672C64.9413 19.9387 65.16 20.2533 65.32 20.616C65.4907 20.9787 65.576 21.4053 65.576 21.896C65.576 22.4187 65.4747 22.888 65.272 23.304C65.0693 23.72 64.792 24.072 64.44 24.36C64.088 24.6373 63.688 24.8507 63.24 25C62.8027 25.16 62.344 25.24 61.864 25.24C61.2027 25.24 60.5893 25.112 60.024 24.856C59.4693 24.5893 58.984 24.2373 58.568 23.8C58.152 23.3627 57.8213 22.888 57.576 22.376L58.984 21.4ZM68.5216 21.32C68.5216 21.7893 68.623 22.2 68.8256 22.552C69.0283 22.8933 69.3003 23.1653 69.6416 23.368C69.9936 23.5707 70.383 23.672 70.8096 23.672C71.1616 23.672 71.4976 23.6187 71.8176 23.512C72.1376 23.4053 72.4203 23.256 72.6656 23.064C72.911 22.872 73.0923 22.6587 73.2096 22.424V24.328C72.9536 24.584 72.607 24.7867 72.1696 24.936C71.7323 25.0853 71.2523 25.16 70.7296 25.16C69.9723 25.16 69.2896 25 68.6816 24.68C68.0843 24.3493 67.6096 23.896 67.2576 23.32C66.9163 22.7333 66.7456 22.0667 66.7456 21.32C66.7456 20.5627 66.9163 19.896 67.2576 19.32C67.6096 18.744 68.0843 18.296 68.6816 17.976C69.2896 17.6453 69.9723 17.48 70.7296 17.48C71.2523 17.48 71.7323 17.5547 72.1696 17.704C72.607 17.8533 72.9536 18.056 73.2096 18.312V20.216C73.0923 19.9707 72.9056 19.7573 72.6496 19.576C72.4043 19.384 72.1216 19.2347 71.8016 19.128C71.4816 19.0213 71.151 18.968 70.8096 18.968C70.383 18.968 69.9936 19.0693 69.6416 19.272C69.3003 19.4747 69.0283 19.752 68.8256 20.104C68.623 20.456 68.5216 20.8613 68.5216 21.32ZM76.8316 17.64V25H75.1196V17.64H76.8316ZM79.0236 19.48C78.8636 19.352 78.7143 19.256 78.5756 19.192C78.437 19.128 78.261 19.096 78.0476 19.096C77.7596 19.096 77.525 19.1707 77.3436 19.32C77.1623 19.4693 77.029 19.6773 76.9436 19.944C76.869 20.2 76.8316 20.504 76.8316 20.856L76.2556 20.52C76.2556 19.9333 76.3623 19.416 76.5756 18.968C76.7996 18.5093 77.0823 18.1467 77.4236 17.88C77.7756 17.6133 78.1383 17.48 78.5116 17.48C78.7783 17.48 79.029 17.5227 79.2636 17.608C79.4983 17.6827 79.6956 17.8213 79.8556 18.024L79.0236 19.48ZM80.2471 21.32C80.2471 20.5627 80.4178 19.896 80.7591 19.32C81.1111 18.744 81.5858 18.296 82.1831 17.976C82.7805 17.6453 83.4578 17.48 84.2151 17.48C84.9725 17.48 85.6445 17.6453 86.2311 17.976C86.8285 18.296 87.3031 18.744 87.6551 19.32C88.0071 19.896 88.1831 20.5627 88.1831 21.32C88.1831 22.0667 88.0071 22.7333 87.6551 23.32C87.3031 23.896 86.8285 24.3493 86.2311 24.68C85.6445 25 84.9725 25.16 84.2151 25.16C83.4578 25.16 82.7805 25 82.1831 24.68C81.5858 24.3493 81.1111 23.896 80.7591 23.32C80.4178 22.7333 80.2471 22.0667 80.2471 21.32ZM82.0231 21.32C82.0231 21.7787 82.1191 22.184 82.3111 22.536C82.5031 22.8773 82.7645 23.1493 83.0951 23.352C83.4258 23.544 83.7991 23.64 84.2151 23.64C84.6205 23.64 84.9885 23.544 85.3191 23.352C85.6605 23.1493 85.9271 22.8773 86.1191 22.536C86.3111 22.184 86.4071 21.7787 86.4071 21.32C86.4071 20.8613 86.3111 20.456 86.1191 20.104C85.9271 19.752 85.6605 19.48 85.3191 19.288C84.9885 19.096 84.6205 19 84.2151 19C83.7991 19 83.4258 19.096 83.0951 19.288C82.7645 19.48 82.5031 19.752 82.3111 20.104C82.1191 20.456 82.0231 20.8613 82.0231 21.32ZM89.8228 12.52H91.5508V25H89.8228V12.52ZM93.7603 12.52H95.4883V25H93.7603V12.52Z" fill="#F0F0F2"/>
</svg>
