<svg width="100" height="28" viewBox="0 0 100 28" fill="none" xmlns="http://www.w3.org/2000/svg">
<rect width="100" height="28" rx="6" fill="#0F0F10"/>
<path d="M37.272 15.456C37.464 15.792 37.664 16.088 37.872 16.344C38.088 16.6 38.328 16.8 38.592 16.944C38.856 17.088 39.156 17.16 39.492 17.16C39.94 17.16 40.3 17.036 40.572 16.788C40.844 16.54 40.98 16.224 40.98 15.84C40.98 15.464 40.892 15.164 40.716 14.94C40.54 14.716 40.308 14.536 40.02 14.4C39.74 14.256 39.44 14.128 39.12 14.016C38.912 13.944 38.68 13.852 38.424 13.74C38.168 13.62 37.924 13.472 37.692 13.296C37.46 13.112 37.268 12.888 37.116 12.624C36.972 12.36 36.9 12.036 36.9 11.652C36.9 11.236 37.004 10.864 37.212 10.536C37.42 10.208 37.708 9.952 38.076 9.768C38.444 9.576 38.864 9.48 39.336 9.48C39.792 9.48 40.188 9.568 40.524 9.744C40.868 9.912 41.16 10.132 41.4 10.404C41.64 10.668 41.828 10.948 41.964 11.244L41.088 11.748C40.984 11.54 40.852 11.336 40.692 11.136C40.532 10.936 40.336 10.772 40.104 10.644C39.88 10.516 39.604 10.452 39.276 10.452C38.82 10.452 38.488 10.564 38.28 10.788C38.072 11.004 37.968 11.248 37.968 11.52C37.968 11.752 38.028 11.968 38.148 12.168C38.268 12.36 38.468 12.544 38.748 12.72C39.036 12.888 39.424 13.056 39.912 13.224C40.136 13.304 40.372 13.408 40.62 13.536C40.868 13.664 41.096 13.828 41.304 14.028C41.52 14.22 41.696 14.456 41.832 14.736C41.968 15.008 42.036 15.336 42.036 15.72C42.036 16.088 41.964 16.42 41.82 16.716C41.684 17.012 41.492 17.264 41.244 17.472C41.004 17.68 40.728 17.84 40.416 17.952C40.112 18.064 39.792 18.12 39.456 18.12C39 18.12 38.576 18.024 38.184 17.832C37.8 17.632 37.46 17.372 37.164 17.052C36.876 16.724 36.64 16.376 36.456 16.008L37.272 15.456ZM43.9062 15.24C43.9062 15.624 43.9862 15.964 44.1462 16.26C44.3142 16.556 44.5382 16.792 44.8182 16.968C45.1062 17.136 45.4302 17.22 45.7902 17.22C46.0862 17.22 46.3622 17.176 46.6182 17.088C46.8822 16.992 47.1102 16.868 47.3022 16.716C47.4942 16.556 47.6302 16.388 47.7102 16.212V17.412C47.5182 17.636 47.2422 17.812 46.8822 17.94C46.5302 18.06 46.1662 18.12 45.7902 18.12C45.2542 18.12 44.7702 17.996 44.3382 17.748C43.9062 17.5 43.5622 17.16 43.3062 16.728C43.0582 16.288 42.9342 15.792 42.9342 15.24C42.9342 14.68 43.0582 14.184 43.3062 13.752C43.5622 13.32 43.9062 12.98 44.3382 12.732C44.7702 12.484 45.2542 12.36 45.7902 12.36C46.1662 12.36 46.5302 12.424 46.8822 12.552C47.2422 12.672 47.5182 12.844 47.7102 13.068V14.268C47.6302 14.084 47.4942 13.916 47.3022 13.764C47.1102 13.612 46.8822 13.492 46.6182 13.404C46.3622 13.308 46.0862 13.26 45.7902 13.26C45.4302 13.26 45.1062 13.344 44.8182 13.512C44.5382 13.68 44.3142 13.916 44.1462 14.22C43.9862 14.516 43.9062 14.856 43.9062 15.24ZM50.1647 12.48V18H49.2047V12.48H50.1647ZM51.8327 13.536C51.7047 13.44 51.5887 13.372 51.4847 13.332C51.3807 13.284 51.2487 13.26 51.0887 13.26C50.8487 13.26 50.6607 13.32 50.5247 13.44C50.3887 13.56 50.2927 13.724 50.2367 13.932C50.1887 14.14 50.1647 14.376 50.1647 14.64H49.7327C49.7327 14.2 49.8087 13.812 49.9607 13.476C50.1207 13.132 50.3247 12.86 50.5727 12.66C50.8207 12.46 51.0727 12.36 51.3287 12.36C51.5287 12.36 51.7127 12.388 51.8807 12.444C52.0567 12.492 52.2167 12.592 52.3607 12.744L51.8327 13.536ZM52.6622 15.24C52.6622 14.68 52.7862 14.184 53.0342 13.752C53.2902 13.32 53.6342 12.98 54.0662 12.732C54.4982 12.484 54.9822 12.36 55.5182 12.36C56.0622 12.36 56.5462 12.484 56.9702 12.732C57.4022 12.98 57.7422 13.32 57.9902 13.752C58.2462 14.184 58.3742 14.68 58.3742 15.24C58.3742 15.792 58.2462 16.288 57.9902 16.728C57.7422 17.16 57.4022 17.5 56.9702 17.748C56.5462 17.996 56.0622 18.12 55.5182 18.12C54.9822 18.12 54.4982 17.996 54.0662 17.748C53.6342 17.5 53.2902 17.16 53.0342 16.728C52.7862 16.288 52.6622 15.792 52.6622 15.24ZM53.6342 15.24C53.6342 15.624 53.7142 15.964 53.8742 16.26C54.0422 16.556 54.2662 16.792 54.5462 16.968C54.8342 17.136 55.1582 17.22 55.5182 17.22C55.8782 17.22 56.1982 17.136 56.4782 16.968C56.7662 16.792 56.9902 16.556 57.1502 16.26C57.3182 15.964 57.4022 15.624 57.4022 15.24C57.4022 14.856 57.3182 14.516 57.1502 14.22C56.9902 13.916 56.7662 13.68 56.4782 13.512C56.1982 13.344 55.8782 13.26 55.5182 13.26C55.1582 13.26 54.8342 13.344 54.5462 13.512C54.2662 13.68 54.0422 13.916 53.8742 14.22C53.7142 14.516 53.6342 14.856 53.6342 15.24ZM59.693 8.64H60.653V18H59.693V8.64ZM62.4586 8.64H63.4186V18H62.4586V8.64Z" fill="#F0F0F2"/>
</svg>
