<svg width="150" height="34" viewBox="0 0 150 34" fill="none" xmlns="http://www.w3.org/2000/svg">
<rect width="150" height="34" rx="8" fill="#0F0F10"/>
<path d="M56.984 19.4C57.2293 19.8267 57.4907 20.2053 57.768 20.536C58.056 20.856 58.3707 21.1067 58.712 21.288C59.0533 21.4587 59.4373 21.544 59.864 21.544C60.376 21.544 60.792 21.4053 61.112 21.128C61.432 20.8507 61.592 20.4933 61.592 20.056C61.592 19.64 61.4907 19.3093 61.288 19.064C61.0853 18.808 60.8027 18.5947 60.44 18.424C60.088 18.2427 59.6773 18.0667 59.208 17.896C58.9307 17.8 58.6213 17.672 58.28 17.512C57.9387 17.3413 57.6133 17.1333 57.304 16.888C56.9947 16.632 56.7387 16.3227 56.536 15.96C56.3333 15.5867 56.232 15.1387 56.232 14.616C56.232 14.0187 56.3867 13.496 56.696 13.048C57.0053 12.5893 57.4213 12.2373 57.944 11.992C58.4773 11.736 59.08 11.608 59.752 11.608C60.4133 11.608 60.9893 11.7253 61.48 11.96C61.9707 12.1947 62.3813 12.4933 62.712 12.856C63.0533 13.2187 63.32 13.5973 63.512 13.992L61.976 14.856C61.8373 14.5787 61.6613 14.3227 61.448 14.088C61.2347 13.8427 60.984 13.6507 60.696 13.512C60.4187 13.3627 60.0933 13.288 59.72 13.288C59.1973 13.288 58.8133 13.4107 58.568 13.656C58.3227 13.8907 58.2 14.168 58.2 14.488C58.2 14.776 58.2853 15.0373 58.456 15.272C58.6373 15.496 58.9147 15.7093 59.288 15.912C59.6613 16.1147 60.1467 16.3227 60.744 16.536C61.0747 16.6533 61.4053 16.8027 61.736 16.984C62.0773 17.1653 62.3867 17.3947 62.664 17.672C62.9413 17.9387 63.16 18.2533 63.32 18.616C63.4907 18.9787 63.576 19.4053 63.576 19.896C63.576 20.4187 63.4747 20.888 63.272 21.304C63.0693 21.72 62.792 22.072 62.44 22.36C62.088 22.6373 61.688 22.8507 61.24 23C60.8027 23.16 60.344 23.24 59.864 23.24C59.2027 23.24 58.5893 23.112 58.024 22.856C57.4693 22.5893 56.984 22.2373 56.568 21.8C56.152 21.3627 55.8213 20.888 55.576 20.376L56.984 19.4ZM66.5216 19.32C66.5216 19.7893 66.623 20.2 66.8256 20.552C67.0283 20.8933 67.3003 21.1653 67.6416 21.368C67.9936 21.5707 68.383 21.672 68.8096 21.672C69.1616 21.672 69.4976 21.6187 69.8176 21.512C70.1376 21.4053 70.4203 21.256 70.6656 21.064C70.911 20.872 71.0923 20.6587 71.2096 20.424V22.328C70.9536 22.584 70.607 22.7867 70.1696 22.936C69.7323 23.0853 69.2523 23.16 68.7296 23.16C67.9723 23.16 67.2896 23 66.6816 22.68C66.0843 22.3493 65.6096 21.896 65.2576 21.32C64.9163 20.7333 64.7456 20.0667 64.7456 19.32C64.7456 18.5627 64.9163 17.896 65.2576 17.32C65.6096 16.744 66.0843 16.296 66.6816 15.976C67.2896 15.6453 67.9723 15.48 68.7296 15.48C69.2523 15.48 69.7323 15.5547 70.1696 15.704C70.607 15.8533 70.9536 16.056 71.2096 16.312V18.216C71.0923 17.9707 70.9056 17.7573 70.6496 17.576C70.4043 17.384 70.1216 17.2347 69.8016 17.128C69.4816 17.0213 69.151 16.968 68.8096 16.968C68.383 16.968 67.9936 17.0693 67.6416 17.272C67.3003 17.4747 67.0283 17.752 66.8256 18.104C66.623 18.456 66.5216 18.8613 66.5216 19.32ZM74.8316 15.64V23H73.1196V15.64H74.8316ZM77.0236 17.48C76.8636 17.352 76.7143 17.256 76.5756 17.192C76.437 17.128 76.261 17.096 76.0476 17.096C75.7596 17.096 75.525 17.1707 75.3436 17.32C75.1623 17.4693 75.029 17.6773 74.9436 17.944C74.869 18.2 74.8316 18.504 74.8316 18.856L74.2556 18.52C74.2556 17.9333 74.3623 17.416 74.5756 16.968C74.7996 16.5093 75.0823 16.1467 75.4236 15.88C75.7756 15.6133 76.1383 15.48 76.5116 15.48C76.7783 15.48 77.029 15.5227 77.2636 15.608C77.4983 15.6827 77.6956 15.8213 77.8556 16.024L77.0236 17.48ZM78.2471 19.32C78.2471 18.5627 78.4178 17.896 78.7591 17.32C79.1111 16.744 79.5858 16.296 80.1831 15.976C80.7805 15.6453 81.4578 15.48 82.2151 15.48C82.9725 15.48 83.6445 15.6453 84.2311 15.976C84.8285 16.296 85.3031 16.744 85.6551 17.32C86.0071 17.896 86.1831 18.5627 86.1831 19.32C86.1831 20.0667 86.0071 20.7333 85.6551 21.32C85.3031 21.896 84.8285 22.3493 84.2311 22.68C83.6445 23 82.9725 23.16 82.2151 23.16C81.4578 23.16 80.7805 23 80.1831 22.68C79.5858 22.3493 79.1111 21.896 78.7591 21.32C78.4178 20.7333 78.2471 20.0667 78.2471 19.32ZM80.0231 19.32C80.0231 19.7787 80.1191 20.184 80.3111 20.536C80.5031 20.8773 80.7645 21.1493 81.0951 21.352C81.4258 21.544 81.7991 21.64 82.2151 21.64C82.6205 21.64 82.9885 21.544 83.3191 21.352C83.6605 21.1493 83.9271 20.8773 84.1191 20.536C84.3111 20.184 84.4071 19.7787 84.4071 19.32C84.4071 18.8613 84.3111 18.456 84.1191 18.104C83.9271 17.752 83.6605 17.48 83.3191 17.288C82.9885 17.096 82.6205 17 82.2151 17C81.7991 17 81.4258 17.096 81.0951 17.288C80.7645 17.48 80.5031 17.752 80.3111 18.104C80.1191 18.456 80.0231 18.8613 80.0231 19.32ZM87.8228 10.52H89.5508V23H87.8228V10.52ZM91.7603 10.52H93.4883V23H91.7603V10.52Z" fill="#F0F0F2"/>
</svg>
