<svg width="40" height="41" viewBox="0 0 40 41" fill="none" xmlns="http://www.w3.org/2000/svg">
<path d="M0 23.8722V33.5362C0 34.4642 1.11999 34.9442 1.79199 34.2722L11.456 24.6082C12.1279 23.9362 11.648 22.8162 10.72 22.8162H1.02398C0.447983 22.8162 0 23.2642 0 23.8722Z" fill="#39393B"/>
<path d="M11.4559 15.4241L1.79199 5.76001C1.11999 5.08801 0 5.56801 0 6.49602V16.1601C0 16.7361 0.479975 17.2161 1.05597 17.2161H10.72C11.648 17.2161 12.0959 16.0961 11.4559 15.4241Z" fill="#39393B"/>
<path d="M16.1284 0.0319824H6.4644C5.53641 0.0319824 5.05639 1.15199 5.72839 1.82399L15.3924 11.4881C16.0644 12.1601 17.1844 11.6801 17.1844 10.7521V1.08799C17.1844 0.479986 16.7364 0.0319824 16.1284 0.0319824Z" fill="#39393B"/>
<path d="M22.7832 1.05601V10.7201C22.7832 11.6481 23.9032 12.1281 24.5752 11.4561L34.2392 1.79201C34.9112 1.12001 34.4312 0 33.5032 0H23.8392C23.2312 0.0320002 22.7832 0.480004 22.7832 1.05601Z" fill="#39393B"/>
<path d="M28.513 24.6082L38.177 34.2722C38.849 34.9442 39.969 34.4642 39.969 33.5362V23.8722C39.969 23.2962 39.489 22.8162 38.913 22.8162H29.249C28.321 22.8162 27.873 23.9362 28.513 24.6082Z" fill="#39393B"/>
<path d="M40.0008 16.1601V6.49602C40.0008 5.56801 38.8808 5.08801 38.2088 5.76001L28.5448 15.4241C27.8728 16.0961 28.3528 17.2161 29.2808 17.2161H38.9448C39.5208 17.2161 40.0008 16.7681 40.0008 16.1601Z" fill="#39393B"/>
<path d="M22.7832 29.3122V38.9763C22.7832 39.5523 23.2632 40.0323 23.8392 40.0323H33.5032C34.4312 40.0323 34.9112 38.9123 34.2392 38.2403L24.5752 28.5762C23.9032 27.9042 22.7832 28.3522 22.7832 29.3122Z" fill="#39393B"/>
<path d="M15.3924 28.544L5.72839 38.2081C5.05639 38.8801 5.53641 40.0001 6.4644 40.0001H16.1284C16.7044 40.0001 17.1844 39.5201 17.1844 38.9441V29.28C17.1844 28.352 16.0644 27.904 15.3924 28.544Z" fill="#39393B"/>
</svg>
