<svg width="40" height="36" viewBox="0 0 40 36" fill="none" xmlns="http://www.w3.org/2000/svg">
<path d="M30.3 35.8712H9.71317C7.18384 35.8712 5.13477 33.8222 5.13477 31.2929C5.13477 28.7636 7.18384 26.7146 9.71317 26.7146H30.3C32.8293 26.7146 34.8784 28.7636 34.8784 31.2929C34.8784 33.8222 32.8293 35.8712 30.3 35.8712Z" fill="#39393B"/>
<path d="M35.4543 26.9386C33.8855 26.9386 32.3487 26.1062 31.4842 24.6654L21.2068 6.8645C19.9582 4.6874 20.6945 1.86999 22.8717 0.621364C25.0488 -0.627263 27.8663 0.109107 29.115 2.2862L39.3924 20.0871C40.6411 22.2642 39.9046 25.0816 37.7275 26.3303C36.9911 26.7465 36.2227 26.9386 35.4543 26.9386Z" fill="#39393B"/>
<path d="M4.55951 26.9386C3.79111 26.9386 2.99069 26.7465 2.28632 26.3303C0.10918 25.0817 -0.659228 22.2643 0.621445 20.0872L10.8988 2.28627C12.1475 0.109175 14.965 -0.659211 17.1421 0.621432C19.3193 1.87006 20.0877 4.68747 18.807 6.86457L8.5296 24.6655C7.69717 26.1062 6.16035 26.9386 4.55951 26.9386Z" fill="#39393B"/>
</svg>
