<svg width="94" height="41" viewBox="0 0 94 41" fill="none" xmlns="http://www.w3.org/2000/svg">
<path d="M56.8066 39.9042H44.0995L40.0564 11.4011H50.4531L56.8066 39.9042L58.5394 11.4011H71.2464L64.3153 39.9042L78.7551 11.4011H89.1518L77.0223 39.9042H64.3153L63.5067 19.0399L56.8066 39.9042Z" fill="#F0F0F2"/>
<path d="M40.0075 27.8543C40.0075 29.6592 39.6963 31.2408 39.0738 32.599C38.4702 33.9573 37.6497 35.1203 36.6123 36.0878C35.5937 37.0554 34.3959 37.8555 33.0189 38.4881C31.6608 39.1207 30.2273 39.6231 28.7183 39.9952C27.2093 40.3674 25.672 40.6279 24.1064 40.7767C22.5408 40.9256 21.0506 41 19.6359 41C17.9572 41 16.1369 40.8046 14.1752 40.4139C12.2135 40.0418 10.3084 39.4742 8.45987 38.7114C6.61133 37.9299 4.93257 36.9623 3.42356 35.8087C1.91455 34.6551 0.773366 33.2968 0 31.7338L10.1009 27.017C10.1009 28.3009 10.365 29.5103 10.8931 30.6453C11.4402 31.7617 12.1569 32.7386 13.0435 33.5759C13.93 34.4132 14.9392 35.0737 16.0709 35.5575C17.2215 36.0413 18.4099 36.2832 19.6359 36.2832C20.8054 36.2832 21.9466 36.0878 23.0595 35.6971C24.1724 35.2877 25.1533 34.7109 26.0021 33.9666C26.8697 33.2224 27.5677 32.3386 28.0958 31.3152C28.624 30.2732 28.888 29.1196 28.888 27.8543C28.888 26.4588 28.6428 25.2308 28.1524 24.1702C27.6808 23.1096 27.0206 22.2351 26.1718 21.5466C25.3419 20.8396 24.361 20.3093 23.2293 19.9558C22.1164 19.6022 20.9186 19.4255 19.6359 19.4255C16.6557 19.4255 14.0809 19.5464 11.9117 19.7883C9.74252 20.0116 7.95058 20.2628 6.53588 20.5419C4.87598 20.8768 3.48958 21.2489 2.37669 21.6583L6.62077 0H7.8905H36.6406H94L90.8504 7.4108H15.4063L13.864 14.9319C14.694 14.8575 15.5805 14.8017 16.5236 14.7645C17.4856 14.7086 18.5231 14.6807 19.6359 14.6807C22.1447 14.6807 24.3893 14.8761 26.3699 15.2668C28.3693 15.6576 30.1235 16.1879 31.6325 16.8577C33.1416 17.509 34.4242 18.2718 35.4805 19.1464C36.5368 20.0209 37.3951 20.9512 38.0553 21.9374C38.7343 22.9049 39.2247 23.9004 39.5265 24.9238C39.8472 25.9285 40.0075 26.9054 40.0075 27.8543Z" fill="#F0F0F2"/>
</svg>
